PathFileType	4	(X/Y/Z)	I12_1_OpenSim.trc																																																																																																																						
DataRate	CameraRate	NumFrames	NumMarkers	Units	OrigDataRate	OrigDataStartFrame	OrigNumFrames																																																																																																																		
100	100	6	40	mm	100	2626	3000																																																																																																																		
Frame#	Time	R.ASIS			R.PSIS			S2			L.PSIS			L.ASIS			R.TH1			R.TH2			R.TH3			R.MKnee			R.Knee			R.SH1			R.SH2			R.SH3			R.SH4			R.Ankle			R.MAnkle			R.Heel			R.MT5			R.MT1			L.TH1			L.TH2			L.TH3			L.TH4			L.MKnee			L.Knee			L.SH1			L.SH2			L.SH3			L.Ankle			L.MAnkle			L.Heel			L.MT5			L.MT1			R.Acr			L.Acr			C7			T10			Clav			Sternum			R.Back		
		X1	Y1	Z1	X2	Y2	Z2	X3	Y3	Z3	X4	Y4	Z4	X5	Y5	Z5	X6	Y6	Z6	X7	Y7	Z7	X8	Y8	Z8	X9	Y9	Z9	X10	Y10	Z10	X11	Y11	Z11	X12	Y12	Z12	X13	Y13	Z13	X14	Y14	Z14	X15	Y15	Z15	X16	Y16	Z16	X17	Y17	Z17	X18	Y18	Z18	X19	Y19	Z19	X20	Y20	Z20	X21	Y21	Z21	X22	Y22	Z22	X23	Y23	Z23	X24	Y24	Z24	X25	Y25	Z25	X26	Y26	Z26	X27	Y27	Z27	X28	Y28	Z28	X29	Y29	Z29	X30	Y30	Z30	X31	Y31	Z31	X32	Y32	Z32	X33	Y33	Z33	X34	Y34	Z34	X35	Y35	Z35	X36	Y36	Z36	X37	Y37	Z37	X38	Y38	Z38	X39	Y39	Z39	X40	Y40	Z40
2626	26.25	848.6116	1031.3672	-430.3809	624.7467	1030.2911	-534.2114	607.3978	1031.8286	-579.4805	626.8298	1038.0299	-630.4069	839.7954	1049.9285	-721.7579	781.2155	694.7392	-421.3657	700.8084	706.776	-409.4716	684.0751	598.6703	-422.2093	682.0551	473.7172	-544.6153	678.4443	481.1628	-429.4282	586.9431	337.75	-422.5149	522.0182	246.8202	-438.6206	519.4684	386.4141	-414.6736	455.2788	292.9206	-421.6709	374.3429	143.9749	-427.8092	415.0578	146.4882	-519.3755	303.9654	150.3389	-485.8401	443.2717	43.6608	-405.2538	482.9194	36.9904	-498.5162	909.6666	770.5585	-741.4266	938.1547	666.4844	-726.3759	831.5154	743.3891	-755.2969	862.6279	640.1834	-733.3436	950.304	514.8508	-602.2571	957.3355	521.8655	-712.0236	978.092	388.5464	-730.4023	896.389	385.0818	-742.3749	903.3174	276.0425	-736.2095	965.4329	80.9348	-733.5926	989.5001	91.0451	-633.019	899.7565	37.587	-682.6616	1075.9587	38.2248	-745.5977	1110.9666	51.1616	-644.4293	819.4056	1446.4251	-424.8408	764.4248	1423.4797	-740.4831	739.6169	1472.9363	-578.0441	704.6969	1149.2063	-562.4423	879.9337	1381.7808	-592.7949	911.0355	1237.3256	-580.189	673.3577	1375.2324	-480.809
2627	26.26	849.7231	1033.0225	-432.8148	626.0973	1031.6001	-536.7407	608.8709	1033.2758	-582.0442	628.4252	1039.694	-632.9044	841.5794	1052.2681	-724.1497	788.1809	695.1807	-423.0314	707.3555	705.2905	-411.2635	693.4533	596.691	-423.2151	694.8264	471.3172	-544.8082	690.192	479.7225	-429.3738	594.4445	339.4516	-422.4031	526.5138	250.6634	-438.1687	528.7633	390.4643	-415.4343	461.4543	299.1393	-421.9678	375.2015	153.7216	-427.2895	415.4483	153.3506	-518.6169	305.8666	165.6668	-485.3303	435.8727	48.2589	-405.0491	473.9444	38.5244	-498.4848	910.2325	771.2481	-743.4855	937.5174	666.8973	-728.5317	831.8137	745.0093	-757.6813	861.7079	641.4557	-735.8243	946.7643	514.6387	-604.0944	954.6939	521.5535	-713.83	973.5033	387.8201	-731.9221	891.8141	385.6845	-744.7886	896.9353	276.4891	-738.3095	954.7205	80.5279	-734.44	979.0154	90.8097	-633.8917	888.4697	38.1902	-683.3313	1064.6978	36.1552	-746.4053	1100.014	49.1935	-645.3016	818.7697	1448.1471	-426.7755	765.5967	1426.0508	-742.6584	739.6796	1474.6921	-580.1581	705.7562	1150.88	-565.1155	880.2341	1384.1394	-594.4973	911.8687	1239.8229	-582.0887	673.2036	1376.708	-483.533
2628	26.27	850.4915	1034.7041	-435.1486	627.1297	1032.9163	-539.2432	610.0381	1034.7463	-584.5833	629.7504	1041.3955	-635.3674	843.1633	1054.647	-726.4531	795.5244	695.7021	-424.5271	714.3332	703.6786	-412.8969	703.4869	594.6458	-424.0636	708.6849	469.0236	-544.9462	702.8301	478.316	-429.2606	603.1837	341.2668	-422.4262	532.3568	254.723	-438.0236	539.3691	394.5424	-416.2367	469.0717	305.466	-422.4813	377.7346	164.2422	-427.1725	417.3544	160.7758	-518.3763	309.8914	181.7473	-485.2279	429.5915	54.3012	-405.0367	465.959	40.9304	-498.4816	910.2356	771.8101	-745.7145	936.1871	667.1783	-730.8	831.4758	746.5905	-760.0104	860.0439	642.6842	-738.2161	942.7595	514.5023	-605.973	951.1985	521.1748	-715.6918	968.0089	387.0667	-733.5125	886.3274	386.2159	-746.8555	889.7397	276.9044	-740.0588	943.6813	80.2632	-735.1274	968.2068	90.7296	-634.6426	877.0648	38.6426	-683.8643	1053.1941	34.7161	-747.2067	1088.802	47.8593	-646.1369	817.984	1449.9618	-428.6313	766.8616	1428.7274	-744.7762	739.6851	1476.5354	-582.2431	706.6705	1152.6608	-567.7657	880.4638	1386.5455	-596.07	912.5483	1242.3516	-583.8274	672.9272	1378.3038	-486.2625
2629	26.28	850.9094	1036.3485	-437.365	627.8393	1034.2142	-541.7054	610.8938	1036.217	-587.086	630.793	1043.111	-637.7842	844.5154	1056.9968	-728.6552	803.0898	696.359	-425.8572	721.6041	702.0382	-414.3958	713.9807	592.6555	-424.8107	723.3321	467.0335	-545.0948	716.113	477.0857	-429.1585	612.9987	343.2445	-422.6277	539.4183	259.0063	-438.2093	551.0751	398.6672	-417.0876	477.9694	311.8649	-423.2328	381.9338	175.4006	-427.4908	420.8377	168.6829	-518.6821	316.0047	198.2956	-485.6143	424.6753	61.7189	-405.2739	459.2606	44.2421	-498.5149	909.6423	772.2176	-748.004	934.1575	667.3119	-733.048	830.4846	748.0853	-762.1832	857.6418	643.8304	-740.393	938.2543	514.4367	-607.7521	946.9116	520.7519	-717.4703	961.7278	386.3047	-735.0149	880.068	386.6965	-748.5521	881.8481	277.3071	-741.4554	932.3721	80.1198	-735.6218	957.0889	90.7633	-635.2145	865.5358	38.9629	-684.2645	1041.5194	33.8024	-747.8899	1077.3464	47.0165	-646.8209	817.0425	1451.7948	-430.3761	768.2047	1431.4181	-746.8113	739.6452	1478.4254	-584.2819	707.4156	1154.4973	-570.3759	880.6265	1388.9321	-597.4949	913.0678	1244.8391	-585.3812	672.5189	1379.9626	-488.9835
2630	26.29	850.9977	1037.9287	-439.4559	628.2378	1035.4878	-544.1118	611.4512	1037.6752	-589.5377	631.5541	1044.8238	-640.1402	845.6187	1059.2629	-730.7543	810.7219	697.2327	-427.0351	729.0237	700.4936	-415.7996	724.7366	590.8652	-425.5193	738.4429	465.5469	-545.3096	729.803	476.1811	-429.1209	623.7334	345.4172	-423.0337	547.5754	263.4901	-438.7251	563.6619	402.833	-417.9777	487.9651	318.2744	-424.2045	387.7387	186.9556	-428.2601	425.9437	176.9067	-519.5105	324.0814	214.9052	-486.5609	421.3937	70.2784	-405.8129	454.2129	48.4035	-498.5953	908.4668	772.4633	-750.2238	931.4712	667.2997	-735.1487	828.8834	749.473	-764.1322	854.5622	644.8801	-742.283	933.1957	514.4124	-609.3267	941.9124	520.3022	-719.0638	954.7809	385.5528	-736.3228	873.1703	387.136	-749.899	873.3903	277.7015	-742.5194	920.8485	80.0682	-735.931	945.6964	90.871	-635.5965	853.8856	39.177	-684.5467	1029.7333	33.2814	-748.4022	1065.6901	46.5225	-647.3171	815.9498	1453.5873	-431.9822	769.6013	1434.0533	-748.7398	739.5727	1480.3361	-586.2541	707.9791	1156.356	-572.9386	880.7248	1391.2487	-598.762	913.4299	1247.2316	-586.7342	671.9792	1381.6429	-491.6798
2631	26.3	850.799	1039.4558	-441.4197	628.3533	1036.7512	-546.4471	611.7387	1039.1233	-591.9227	632.0491	1046.5269	-642.4222	846.4748	1061.4061	-732.7566	818.274	698.4168	-428.0784	736.4508	699.1768	-417.1594	735.5688	589.4247	-426.2508	753.7065	464.7283	-545.6278	743.687	475.7324	-429.179	635.2403	347.7905	-423.652	556.7277	268.1081	-439.5674	576.9137	407.003	-418.8869	498.8722	324.5989	-425.349	395.0246	198.5732	-429.4824	432.6718	185.223	-520.7901	333.891	231.0589	-488.1212	420.0303	79.6133	-406.6818	451.243	53.2841	-498.7273	906.7615	772.5564	-752.2576	928.1997	667.15	-737.0053	826.7585	750.7553	-765.8351	850.8971	645.8392	-743.8726	927.5385	514.3958	-610.6442	936.2826	519.8383	-720.4219	947.2789	384.8273	-737.3922	865.7449	387.5349	-750.9473	864.4849	278.08	-743.288	909.1661	80.0797	-736.0902	934.0771	91.0155	-635.8101	842.1232	39.3132	-684.7327	1017.881	33.0236	-748.7383	1053.89	46.2528	-647.641	814.7163	1455.2977	-433.43	771.0195	1436.5901	-750.5415	739.4788	1482.2535	-588.1398	708.3597	1158.2183	-575.4516	880.7602	1393.4626	-599.8658	913.6384	1249.4934	-587.8811	671.3148	1383.319	-494.3369
